<svg width="198" height="38" viewBox="0 0 198 38" fill="none" xmlns="http://www.w3.org/2000/svg">
<path d="M6.91077 20.7217V18.4617C13.5944 17.544 20.3345 17.0995 27.0808 17.1317C27.0808 17.7317 27.0808 18.3417 27.0208 18.9517C28.9384 18.1007 30.9536 17.4894 33.0208 17.1317C31.7033 13.7236 29.3025 10.8429 26.1879 8.93252C23.0732 7.02217 19.4172 6.18805 15.7822 6.55849C12.1472 6.92892 8.73456 8.48337 6.06929 10.9827C3.40402 13.4821 1.63374 16.7879 1.03077 20.3917L6.91077 20.7217Z" fill="#FDC305"/>
<path d="M28.0808 24.2317C26.9208 25.5117 26.6908 25.4317 26.6908 27.6817C26.6908 28.5917 26.6908 32.5817 26.6908 36.8617C28.9833 35.3476 30.8653 33.2895 32.1688 30.8711C33.4722 28.4526 34.1566 25.749 34.1608 23.0017C34.1476 21.9608 34.0405 20.9233 33.8408 19.9017C31.769 21.1311 29.8375 22.5831 28.0808 24.2317Z" fill="#FDC305"/>
<path d="M7.20077 25.7217C7.20077 25.7217 3.41077 24.2817 2.01077 23.8917C1.62784 23.7709 1.23687 23.6774 0.840775 23.6117C0.94917 26.4976 1.80636 29.3058 3.32816 31.7603C4.84996 34.2148 6.98403 36.2313 9.52077 37.6117L7.20077 25.7217Z" fill="#FDC305"/>
<path d="M27.1308 17.1217C27.1714 11.6003 26.7028 6.08694 25.7308 0.651652C25.7308 0.651652 25.5908 -0.638348 24.8408 0.411652C24.2517 1.65979 23.8474 2.98704 23.6408 4.35165C19.3826 4.07742 15.1083 4.19122 10.8708 4.69165C10.0808 2.00165 8.69077 0.751652 8.02077 1.00165C7.35077 1.25165 7.30077 4.31165 7.30077 4.31165L6.97077 18.4117C13.652 17.5077 20.3888 17.0766 27.1308 17.1217Z" fill="#F06351"/>
<path d="M13.2508 14.0017C13.2508 13.9117 14.2508 14.6817 14.6608 14.9217C15.0708 15.1617 15.2708 15.3417 15.2708 15.5117C15.2708 15.6817 15.0008 15.8517 14.6408 15.8517C14.2808 15.8517 13.7308 15.7317 13.6408 15.5817H14.8708C14.2615 15.131 13.7165 14.5995 13.2508 14.0017Z" fill="black"/>
<path d="M20.7308 14.1117L19.6408 15.4417C19.6408 15.5017 19.4708 15.7917 19.8208 15.7417C20.235 15.6799 20.6431 15.5829 21.0408 15.4517C21.1508 15.4517 21.1108 15.2617 20.9308 15.2817C20.7508 15.3017 20.2408 15.3317 19.9308 15.3917L20.7708 14.1317C20.7708 14.1317 20.8408 14.0017 20.7308 14.1117Z" fill="black"/>
<path d="M17.5908 20.2017C18.0543 19.9974 18.4375 19.6459 18.6808 19.2017C18.9608 18.5517 18.6808 18.2917 18.2408 18.2017C17.6387 18.0918 17.0173 18.2132 16.5008 18.5417C16.1108 18.9017 16.1608 19.2617 16.4508 19.5417C16.8021 19.8079 17.185 20.0295 17.5908 20.2017Z" fill="black"/>
<path d="M17.1908 21.4517C17.0787 21.6802 16.9224 21.8841 16.7308 22.0517C16.446 22.2808 16.0959 22.4138 15.7308 22.4317C15.2046 22.4736 14.6814 22.3206 14.2608 22.0017C14.063 21.8824 13.8844 21.7341 13.7308 21.5617C13.6303 21.4508 13.5076 21.3622 13.3708 21.3017C13.3708 21.3017 14.1208 25.4017 15.9408 26.0517C17.7608 26.7017 18.0808 25.3017 18.1408 24.9217C18.2009 23.7868 17.915 22.6604 17.3208 21.6917C17.3008 21.3817 17.2908 21.5817 17.1908 21.4517Z" fill="#F06351"/>
<path d="M15.5508 22.5917C15.0861 22.5264 14.6397 22.3668 14.239 22.1225C13.8383 21.8783 13.4918 21.5547 13.2208 21.1717C13.2075 21.1586 13.1969 21.1431 13.1897 21.1259C13.1825 21.1087 13.1788 21.0903 13.1788 21.0717C13.1788 21.053 13.1825 21.0346 13.1897 21.0174C13.1969 21.0002 13.2075 20.9847 13.2208 20.9717C13.2338 20.9583 13.2494 20.9478 13.2665 20.9406C13.2837 20.9333 13.3021 20.9296 13.3208 20.9296C13.3394 20.9296 13.3578 20.9333 13.375 20.9406C13.3922 20.9478 13.4077 20.9583 13.4208 20.9717C13.9255 21.6659 14.6837 22.133 15.5308 22.2717C15.8624 22.2467 16.1834 22.1429 16.4669 21.969C16.7504 21.7951 16.9883 21.556 17.1608 21.2717L17.3008 21.0817L17.4008 21.2917C17.4008 21.2917 17.7708 22.0517 18.4008 22.0917C19.0308 22.1317 19.4508 21.6817 20.0108 20.8117C20.0238 20.7983 20.0394 20.7878 20.0565 20.7806C20.0737 20.7733 20.0921 20.7696 20.1108 20.7696C20.1294 20.7696 20.1478 20.7733 20.165 20.7806C20.1822 20.7878 20.1977 20.7983 20.2108 20.8117C20.2431 20.8323 20.2663 20.8645 20.2756 20.9017C20.2849 20.9389 20.2796 20.9782 20.2608 21.0117C19.6208 22.0117 18.9908 22.4517 18.3808 22.4117C18.1488 22.3779 17.9274 22.292 17.7334 22.1604C17.5394 22.0287 17.3778 21.8548 17.2608 21.6517C17.0641 21.9261 16.8084 22.153 16.5125 22.3157C16.2165 22.4784 15.8879 22.5727 15.5508 22.5917Z" fill="black"/>
<path d="M27.0808 18.9217C25.2852 20.5453 23.592 22.2786 22.0108 24.1117C20.4394 25.9378 18.6646 27.5784 16.7208 29.0017C16.5008 28.4717 15.1008 27.4917 15.1008 27.4917C15.1008 27.4917 11.9708 25.3517 9.92077 23.6717C8.81492 22.739 7.76947 21.737 6.79077 20.6717L4.79077 20.5617C7.68095 24.7672 11.911 27.8692 16.7908 29.3617C17.6508 29.2217 20.0608 27.5017 21.8608 26.1017C23.9797 24.2835 25.9648 22.3151 27.8008 20.2117C28.3033 19.6227 28.69 18.9441 28.9408 18.2117C27.8408 18.6017 27.0808 18.9217 27.0808 18.9217Z" fill="#F06351"/>
<path d="M97.4253 26.3451C96.5303 25.0828 96.0861 23.5694 96.1608 22.0374V15.6528C96.0524 14.1044 96.4689 12.5641 97.3462 11.2682C98.2156 10.2682 99.5591 9.80665 101.535 9.80665C103.511 9.80665 104.775 10.2682 105.565 11.1143C106.423 12.1861 106.845 13.528 106.751 14.8836V16.422H102.878V14.6528C102.91 14.1295 102.829 13.6057 102.641 13.1143C102.541 12.916 102.382 12.7515 102.185 12.6418C101.988 12.5321 101.761 12.4824 101.535 12.499C100.982 12.499 100.586 12.6528 100.428 13.0374C100.25 13.584 100.169 14.1565 100.191 14.7297V22.9605C100.15 23.5166 100.259 24.0736 100.507 24.5759C100.665 24.9605 101.061 25.1143 101.614 25.1143C102.167 25.1143 102.483 24.9605 102.641 24.5759C102.821 24.056 102.901 23.5085 102.878 22.9605V21.1143H106.751V22.6528C106.831 24.0305 106.412 25.3918 105.565 26.499C104.775 27.422 103.432 27.8836 101.535 27.8836C99.6381 27.8067 98.2156 27.3451 97.4253 26.3451Z" fill="#111111"/>
<path d="M111.414 10.0374H115.918L119.237 27.5759H115.602L114.97 23.8836H112.362L111.73 27.5759H108.015L111.414 10.0374ZM114.654 21.5759L113.705 14.7297L112.757 21.5759H114.654Z" fill="#111111"/>
<path d="M122.003 12.9605H119.316V10.0374H128.721V12.8836H126.034V27.5759H122.003V12.9605Z" fill="#111111"/>
<path d="M142.867 10.0374V11.8836H138.363V17.6528H141.998V19.422H138.363V25.8836H142.867V27.6528H135.834V10.0374H142.867Z" fill="#111111"/>
<path d="M144.922 10.0374H146.661L151.798 21.6528V10.0374H153.852V27.5759H152.272L147.056 15.5759V27.5759H144.922V10.0374Z" fill="#111111"/>
<path d="M156.223 10.0374H163.178V11.8836H158.673V17.6528H162.309V19.422H158.673V25.8836H163.178V27.6528H156.223V10.0374Z" fill="#111111"/>
<path d="M168.868 10.0374C170.298 9.94127 171.719 10.321 172.899 11.1143C173.768 11.8067 174.163 13.0374 174.163 14.6528C174.163 16.8836 173.452 18.2682 171.95 18.7297L174.479 27.499H172.029L169.658 19.2682H167.683V27.499H165.154V10.0374H168.868ZM168.71 17.5759C169.525 17.6412 170.337 17.4232 171.002 16.9605C171.476 16.5759 171.713 15.8067 171.713 14.6528C171.735 14.0796 171.655 13.5071 171.476 12.9605C171.298 12.5683 170.993 12.244 170.607 12.0374C170.062 11.796 169.465 11.6903 168.868 11.7297H167.762V17.499H168.71V17.5759Z" fill="#111111"/>
<path d="M177.324 26.2682C176.503 24.9232 176.117 23.3683 176.218 21.8067V15.9605C176.198 14.8458 176.331 13.7334 176.613 12.6528C176.877 11.8453 177.404 11.1433 178.115 10.6528C178.997 10.1444 180.015 9.90338 181.039 9.9605C182.698 9.9605 183.884 10.3451 184.595 11.1913C185.413 12.3086 185.805 13.669 185.701 15.0374V15.6528H183.331V15.1143C183.334 14.4701 183.281 13.8268 183.173 13.1913C183.106 12.7897 182.879 12.4301 182.54 12.1913C182.096 11.9075 181.569 11.7724 181.039 11.8067C180.472 11.7713 179.911 11.9351 179.458 12.2682C179.272 12.4207 179.12 12.6085 179.012 12.8201C178.903 13.0317 178.84 13.2627 178.826 13.499C178.722 14.1866 178.669 14.8808 178.668 15.5759V22.1143C178.61 23.1105 178.771 24.1072 179.142 25.0374C179.458 25.6528 180.09 25.8836 181.039 25.8836C181.413 25.929 181.793 25.8656 182.131 25.7013C182.468 25.5371 182.748 25.2793 182.935 24.9605C183.353 23.9878 183.542 22.9365 183.489 21.8836V20.6528H181.197V18.8836H185.78V27.5759H184.2L183.963 25.5759C183.756 26.2462 183.324 26.8298 182.737 27.234C182.15 27.6382 181.441 27.8398 180.723 27.8067C180.07 27.844 179.417 27.723 178.824 27.4545C178.231 27.186 177.716 26.7784 177.324 26.2682Z" fill="#111111"/>
<path d="M190.838 21.422L186.966 10.1143H189.337L192.103 18.5759L194.79 10.1143H197.161L193.288 21.422V27.5759H190.917V21.422H190.838Z" fill="#111111"/>
</svg>
